# xmcd CD database file
#
# Track frame offsets:
#	150
#	21617
#	59851
#	79296
#	95742
#	126350
#	151250
#	171849
#	224915
#
# Disc length: 3318 seconds
#
# Revision: 0
# Processed by: cddbd v1.5.2PL0 Copyright (c) Steve Scherf et al.
# Submitted via: CDex 1.51
#
DISCID=8f0cf409
DTITLE=Various Artist - Tribute To Hammond
DYEAR=1900
DGENRE=Jazz
TTITLE0=Walk, Don't Walk (S.Patry)
TTITLE1=Nova (R. Scott)
TTITLE2=Croccodile ( O. Marchionni)
TTITLE3=Hot Keys (T. Eliez)
TTITLE4=Playground (M. Marthouret)
TTITLE5=Nizza (R. Scott)
TTITLE6=Funckin' Crumble (R. Dechezlepretre)
TTITLE7=A Child Is Born (T. Jones)
TTITLE8=Raymonde 007 (S. Patry)
EXTD=
EXTT0=
EXTT1=
EXTT2=
EXTT3=
EXTT4=
EXTT5=
EXTT6=
EXTT7=
EXTT8=
PLAYORDER=
